%TF.GenerationSoftware,KiCad,Pcbnew,(7.0.0-0)*%
%TF.CreationDate,2023-04-21T13:35:00-07:00*%
%TF.ProjectId,redherring_v2,72656468-6572-4726-996e-675f76322e6b,rev?*%
%TF.SameCoordinates,Original*%
%TF.FileFunction,Profile,NP*%
%FSLAX46Y46*%
G04 Gerber Fmt 4.6, Leading zero omitted, Abs format (unit mm)*
G04 Created by KiCad (PCBNEW (7.0.0-0)) date 2023-04-21 13:35:00*
%MOMM*%
%LPD*%
G01*
G04 APERTURE LIST*
%TA.AperFunction,Profile*%
%ADD10C,0.150000*%
%TD*%
%TA.AperFunction,Profile*%
%ADD11C,0.140000*%
%TD*%
%TA.AperFunction,Profile*%
%ADD12C,0.100000*%
%TD*%
%TA.AperFunction,Profile*%
%ADD13C,0.120000*%
%TD*%
G04 APERTURE END LIST*
D10*
X212167915Y-191915858D02*
G75*
G03*
X212530798Y-191871297I-15J1499958D01*
G01*
X212167915Y-191915853D02*
X165410426Y-191915852D01*
X403816750Y-46667000D02*
X25355840Y-46672000D01*
X405316700Y-48167000D02*
G75*
G03*
X403816750Y-46667000I-1500000J0D01*
G01*
X403816250Y-172698750D02*
X287870000Y-172698750D01*
D11*
X405316250Y-171198750D02*
X405316750Y-48167000D01*
D10*
X403816250Y-172698750D02*
G75*
G03*
X405316250Y-171198750I-50J1500050D01*
G01*
X23855800Y-167230000D02*
G75*
G03*
X25355840Y-168730000I1500000J0D01*
G01*
X287870000Y-172698750D02*
X212530798Y-191871297D01*
X165047543Y-191871296D02*
X72980840Y-168730000D01*
X23855840Y-48172000D02*
X23855840Y-167230000D01*
X25355840Y-46672040D02*
G75*
G03*
X23855840Y-48172000I-40J-1499960D01*
G01*
X25355840Y-168730000D02*
X72980840Y-168730000D01*
X165047541Y-191871303D02*
G75*
G03*
X165410426Y-191915852I362859J1455503D01*
G01*
D12*
%TO.C,SW84*%
X305279250Y-151275135D02*
X305279250Y-154275135D01*
X308679250Y-151275135D02*
X305279250Y-151275135D01*
X308679250Y-154275135D02*
X305279250Y-154275135D01*
X308679250Y-154275135D02*
X308679250Y-151275135D01*
%TO.C,SW49*%
X229776653Y-149949009D02*
X230502419Y-152859896D01*
X233075659Y-149126474D02*
X229776653Y-149949009D01*
X233801424Y-152037361D02*
X230502419Y-152859896D01*
X233801424Y-152037361D02*
X233075659Y-149126474D01*
%TO.C,SW25*%
X135812819Y-105239320D02*
X135087053Y-108150207D01*
X139111824Y-106061855D02*
X135812819Y-105239320D01*
X138386058Y-108972742D02*
X135087053Y-108150207D01*
X138386058Y-108972742D02*
X139111824Y-106061855D01*
%TO.C,SW87*%
X373541750Y-155243885D02*
X373541750Y-158243885D01*
X376941750Y-155243885D02*
X373541750Y-155243885D01*
X376941750Y-158243885D02*
X373541750Y-158243885D01*
X376941750Y-158243885D02*
X376941750Y-155243885D01*
%TO.C,SW8*%
X228098109Y-64472313D02*
X228823875Y-67383200D01*
X231397115Y-63649778D02*
X228098109Y-64472313D01*
X232122880Y-66560665D02*
X228823875Y-67383200D01*
X232122880Y-66560665D02*
X231397115Y-63649778D01*
%TO.C,SW27*%
X220559429Y-112980742D02*
X221285195Y-115891629D01*
X223858435Y-112158207D02*
X220559429Y-112980742D01*
X224584200Y-115069094D02*
X221285195Y-115891629D01*
X224584200Y-115069094D02*
X223858435Y-112158207D01*
%TO.C,SW17*%
X215950817Y-94496609D02*
X216676583Y-97407496D01*
X219249823Y-93674074D02*
X215950817Y-94496609D01*
X219975588Y-96584961D02*
X216676583Y-97407496D01*
X219975588Y-96584961D02*
X219249823Y-93674074D01*
%TO.C,SW32*%
X71281340Y-113175135D02*
X71281340Y-116175135D01*
X74681340Y-113175135D02*
X71281340Y-113175135D01*
X74681340Y-116175135D02*
X71281340Y-116175135D01*
X74681340Y-116175135D02*
X74681340Y-113175135D01*
D13*
%TO.C,LS1*%
X193391340Y-172065000D02*
X184091340Y-172065000D01*
X184091340Y-172065000D02*
X184091340Y-183365000D01*
X184091340Y-183365000D02*
X193391340Y-183365000D01*
X193391340Y-183365000D02*
X193391340Y-172065000D01*
D12*
%TO.C,SW77*%
X321948000Y-113175135D02*
X321948000Y-116175135D01*
X325348000Y-113175135D02*
X321948000Y-113175135D01*
X325348000Y-116175135D02*
X321948000Y-116175135D01*
X325348000Y-116175135D02*
X325348000Y-113175135D01*
%TO.C,SW76*%
X302898000Y-113175135D02*
X302898000Y-116175135D01*
X306298000Y-113175135D02*
X302898000Y-113175135D01*
X306298000Y-116175135D02*
X302898000Y-116175135D01*
X306298000Y-116175135D02*
X306298000Y-113175135D01*
%TO.C,SW58*%
X268466939Y-157481479D02*
X269192705Y-160392366D01*
X271765945Y-156658944D02*
X268466939Y-157481479D01*
X272491710Y-159569831D02*
X269192705Y-160392366D01*
X272491710Y-159569831D02*
X271765945Y-156658944D01*
%TO.C,SW42*%
X66518840Y-132225135D02*
X66518840Y-135225135D01*
X69918840Y-132225135D02*
X66518840Y-132225135D01*
X69918840Y-135225135D02*
X66518840Y-135225135D01*
X69918840Y-135225135D02*
X69918840Y-132225135D01*
%TO.C,SW80*%
X392592250Y-51262135D02*
X392592250Y-54262135D01*
X395992250Y-51262135D02*
X392592250Y-51262135D01*
X395992250Y-54262135D02*
X392592250Y-54262135D01*
X395992250Y-54262135D02*
X395992250Y-51262135D01*
%TO.C,SW12*%
X80806340Y-75075135D02*
X80806340Y-78075135D01*
X84206340Y-75075135D02*
X80806340Y-75075135D01*
X84206340Y-78075135D02*
X80806340Y-78075135D01*
X84206340Y-78075135D02*
X84206340Y-75075135D01*
%TO.C,SW23*%
X98844552Y-96022096D02*
X98118786Y-98932983D01*
X102143557Y-96844631D02*
X98844552Y-96022096D01*
X101417791Y-99755518D02*
X98118786Y-98932983D01*
X101417791Y-99755518D02*
X102143557Y-96844631D01*
%TO.C,SW48*%
X211292520Y-154557622D02*
X212018286Y-157468509D01*
X214591526Y-153735087D02*
X211292520Y-154557622D01*
X215317291Y-156645974D02*
X212018286Y-157468509D01*
X215317291Y-156645974D02*
X214591526Y-153735087D01*
%TO.C,SW82*%
X338616750Y-132225135D02*
X338616750Y-135225135D01*
X342016750Y-132225135D02*
X338616750Y-132225135D01*
X342016750Y-135225135D02*
X338616750Y-135225135D01*
X342016750Y-135225135D02*
X342016750Y-132225135D01*
%TO.C,SW22*%
X76043840Y-94125135D02*
X76043840Y-97125135D01*
X79443840Y-94125135D02*
X76043840Y-94125135D01*
X79443840Y-97125135D02*
X76043840Y-97125135D01*
X79443840Y-97125135D02*
X79443840Y-94125135D01*
%TO.C,SW36*%
X149112264Y-130642583D02*
X148386498Y-133553470D01*
X152411269Y-131465118D02*
X149112264Y-130642583D01*
X151685503Y-134376005D02*
X148386498Y-133553470D01*
X151685503Y-134376005D02*
X152411269Y-131465118D01*
%TO.C,SW41*%
X40325090Y-132225135D02*
X40325090Y-135225135D01*
X43725090Y-132225135D02*
X40325090Y-132225135D01*
X43725090Y-135225135D02*
X40325090Y-135225135D01*
X43725090Y-135225135D02*
X43725090Y-132225135D01*
%TO.C,SW14*%
X122513374Y-79836058D02*
X121787608Y-82746945D01*
X125812379Y-80658593D02*
X122513374Y-79836058D01*
X125086613Y-83569480D02*
X121787608Y-82746945D01*
X125086613Y-83569480D02*
X125812379Y-80658593D01*
%TO.C,SW10*%
X265066376Y-55255089D02*
X265792142Y-58165976D01*
X268365382Y-54432554D02*
X265066376Y-55255089D01*
X269091147Y-57343441D02*
X265792142Y-58165976D01*
X269091147Y-57343441D02*
X268365382Y-54432554D01*
%TO.C,SW21*%
X52231340Y-94125135D02*
X52231340Y-97125135D01*
X55631340Y-94125135D02*
X52231340Y-94125135D01*
X55631340Y-97125135D02*
X52231340Y-97125135D01*
X55631340Y-97125135D02*
X55631340Y-94125135D01*
%TO.C,SW30*%
X275435753Y-96844389D02*
X276161519Y-99755276D01*
X278734759Y-96021854D02*
X275435753Y-96844389D01*
X279460524Y-98932741D02*
X276161519Y-99755276D01*
X279460524Y-98932741D02*
X278734759Y-96021854D01*
%TO.C,SW63*%
X329091750Y-51262635D02*
X329091750Y-54262635D01*
X332491750Y-51262635D02*
X329091750Y-51262635D01*
X332491750Y-54262635D02*
X329091750Y-54262635D01*
X332491750Y-54262635D02*
X332491750Y-51262635D01*
%TO.C,SW50*%
X247684710Y-143029881D02*
X248410476Y-145940768D01*
X250983716Y-142207346D02*
X247684710Y-143029881D01*
X251709481Y-145118233D02*
X248410476Y-145940768D01*
X251709481Y-145118233D02*
X250983716Y-142207346D01*
%TO.C,SW33*%
X94235940Y-114506230D02*
X93510174Y-117417117D01*
X97534945Y-115328765D02*
X94235940Y-114506230D01*
X96809179Y-118239652D02*
X93510174Y-117417117D01*
X96809179Y-118239652D02*
X97534945Y-115328765D01*
%TO.C,SW16*%
X158329488Y-93674316D02*
X157603722Y-96585203D01*
X161628493Y-94496851D02*
X158329488Y-93674316D01*
X160902727Y-97407738D02*
X157603722Y-96585203D01*
X160902727Y-97407738D02*
X161628493Y-94496851D01*
%TO.C,SW55*%
X119676466Y-160115645D02*
X118950700Y-163026532D01*
X122975471Y-160938180D02*
X119676466Y-160115645D01*
X122249705Y-163849067D02*
X118950700Y-163026532D01*
X122249705Y-163849067D02*
X122975471Y-160938180D01*
%TO.C,SW38*%
X243076098Y-124545747D02*
X243801864Y-127456634D01*
X246375104Y-123723212D02*
X243076098Y-124545747D01*
X247100869Y-126634099D02*
X243801864Y-127456634D01*
X247100869Y-126634099D02*
X246375104Y-123723212D01*
%TO.C,SW35*%
X131204207Y-123723454D02*
X130478441Y-126634341D01*
X134503212Y-124545989D02*
X131204207Y-123723454D01*
X133777446Y-127456876D02*
X130478441Y-126634341D01*
X133777446Y-127456876D02*
X134503212Y-124545989D01*
%TO.C,SW13*%
X103453164Y-77537963D02*
X102727398Y-80448850D01*
X106752169Y-78360498D02*
X103453164Y-77537963D01*
X106026403Y-81271385D02*
X102727398Y-80448850D01*
X106026403Y-81271385D02*
X106752169Y-78360498D01*
%TO.C,SW53*%
X59375090Y-151275135D02*
X59375090Y-154275135D01*
X62775090Y-151275135D02*
X59375090Y-151275135D01*
X62775090Y-154275135D02*
X59375090Y-154275135D01*
X62775090Y-154275135D02*
X62775090Y-151275135D01*
%TO.C,SW66*%
X312423000Y-75075135D02*
X312423000Y-78075135D01*
X315823000Y-75075135D02*
X312423000Y-75075135D01*
X315823000Y-78075135D02*
X312423000Y-78075135D01*
X315823000Y-78075135D02*
X315823000Y-75075135D01*
%TO.C,SW72*%
X317185500Y-94125135D02*
X317185500Y-97125135D01*
X320585500Y-94125135D02*
X317185500Y-94125135D01*
X320585500Y-97125135D02*
X317185500Y-97125135D01*
X320585500Y-97125135D02*
X320585500Y-94125135D01*
%TO.C,SW62*%
X306454000Y-51262635D02*
X306454000Y-54262635D01*
X309854000Y-51262635D02*
X306454000Y-51262635D01*
X309854000Y-54262635D02*
X306454000Y-54262635D01*
X309854000Y-54262635D02*
X309854000Y-51262635D01*
%TO.C,SW3*%
X109213929Y-54432796D02*
X108488163Y-57343683D01*
X112512934Y-55255331D02*
X109213929Y-54432796D01*
X111787168Y-58166218D02*
X108488163Y-57343683D01*
X111787168Y-58166218D02*
X112512934Y-55255331D01*
%TO.C,SW61*%
X287404000Y-51262635D02*
X287404000Y-54262635D01*
X290804000Y-51262635D02*
X287404000Y-51262635D01*
X290804000Y-54262635D02*
X287404000Y-54262635D01*
X290804000Y-54262635D02*
X290804000Y-51262635D01*
%TO.C,SW52*%
X35562590Y-151275135D02*
X35562590Y-154275135D01*
X38962590Y-151275135D02*
X35562590Y-151275135D01*
X38962590Y-154275135D02*
X35562590Y-154275135D01*
X38962590Y-154275135D02*
X38962590Y-151275135D01*
%TO.C,SW15*%
X140421431Y-86755187D02*
X139695665Y-89666074D01*
X143720436Y-87577722D02*
X140421431Y-86755187D01*
X142994670Y-90488609D02*
X139695665Y-89666074D01*
X142994670Y-90488609D02*
X143720436Y-87577722D01*
%TO.C,SW40*%
X280044365Y-115328523D02*
X280770131Y-118239410D01*
X283343371Y-114505988D02*
X280044365Y-115328523D01*
X284069136Y-117416875D02*
X280770131Y-118239410D01*
X284069136Y-117416875D02*
X283343371Y-114505988D01*
%TO.C,SW86*%
X354491750Y-155243885D02*
X354491750Y-158243885D01*
X357891750Y-155243885D02*
X354491750Y-155243885D01*
X357891750Y-158243885D02*
X354491750Y-158243885D01*
X357891750Y-158243885D02*
X357891750Y-155243885D01*
%TO.C,SW59*%
X265592767Y-136110752D02*
X266318533Y-139021639D01*
X268891773Y-135288217D02*
X265592767Y-136110752D01*
X269617538Y-138199104D02*
X266318533Y-139021639D01*
X269617538Y-138199104D02*
X268891773Y-135288217D01*
%TO.C,SW68*%
X360048000Y-75075135D02*
X360048000Y-78075135D01*
X363448000Y-75075135D02*
X360048000Y-75075135D01*
X363448000Y-78075135D02*
X360048000Y-78075135D01*
X363448000Y-78075135D02*
X363448000Y-75075135D01*
%TO.C,SW64*%
X348141750Y-51262635D02*
X348141750Y-54262635D01*
X351541750Y-51262635D02*
X348141750Y-51262635D01*
X351541750Y-54262635D02*
X348141750Y-54262635D01*
X351541750Y-54262635D02*
X351541750Y-51262635D01*
%TO.C,SW24*%
X117904762Y-98320192D02*
X117178996Y-101231079D01*
X121203767Y-99142727D02*
X117904762Y-98320192D01*
X120478001Y-102053614D02*
X117178996Y-101231079D01*
X120478001Y-102053614D02*
X121203767Y-99142727D01*
%TO.C,SW75*%
X392592250Y-89362135D02*
X392592250Y-92362135D01*
X395992250Y-89362135D02*
X392592250Y-89362135D01*
X395992250Y-92362135D02*
X392592250Y-92362135D01*
X395992250Y-92362135D02*
X395992250Y-89362135D01*
%TO.C,SW78*%
X352904250Y-113175135D02*
X352904250Y-116175135D01*
X356304250Y-113175135D02*
X352904250Y-113175135D01*
X356304250Y-116175135D02*
X352904250Y-116175135D01*
X356304250Y-116175135D02*
X356304250Y-113175135D01*
%TO.C,SW74*%
X360048000Y-94125135D02*
X360048000Y-97125135D01*
X363448000Y-94125135D02*
X360048000Y-94125135D01*
X363448000Y-97125135D02*
X360048000Y-97125135D01*
X363448000Y-97125135D02*
X363448000Y-94125135D01*
%TO.C,SW70*%
X367191750Y-51261935D02*
X367191750Y-54261935D01*
X370591750Y-51261935D02*
X367191750Y-51261935D01*
X370591750Y-54261935D02*
X367191750Y-54261935D01*
X370591750Y-54261935D02*
X370591750Y-51261935D01*
%TO.C,SW28*%
X238467486Y-106061613D02*
X239193252Y-108972500D01*
X241766492Y-105239078D02*
X238467486Y-106061613D01*
X242492257Y-108149965D02*
X239193252Y-108972500D01*
X242492257Y-108149965D02*
X241766492Y-105239078D01*
%TO.C,SW2*%
X86711840Y-51262635D02*
X86711840Y-54262635D01*
X90111840Y-51262635D02*
X86711840Y-51262635D01*
X90111840Y-54262635D02*
X86711840Y-54262635D01*
X90111840Y-54262635D02*
X90111840Y-51262635D01*
%TO.C,SW88*%
X392591750Y-155243885D02*
X392591750Y-158243885D01*
X395991750Y-155243885D02*
X392591750Y-155243885D01*
X395991750Y-158243885D02*
X392591750Y-158243885D01*
X395991750Y-158243885D02*
X395991750Y-155243885D01*
%TO.C,SW1*%
X67661840Y-51262635D02*
X67661840Y-54262635D01*
X71061840Y-51262635D02*
X67661840Y-51262635D01*
X71061840Y-54262635D02*
X67661840Y-54262635D01*
X71061840Y-54262635D02*
X71061840Y-51262635D01*
%TO.C,SW60*%
X284652978Y-133812656D02*
X285378744Y-136723543D01*
X287951984Y-132990121D02*
X284652978Y-133812656D01*
X288677749Y-135901008D02*
X285378744Y-136723543D01*
X288677749Y-135901008D02*
X287951984Y-132990121D01*
%TO.C,SW44*%
X108687538Y-135288459D02*
X107961772Y-138199346D01*
X111986543Y-136110994D02*
X108687538Y-135288459D01*
X111260777Y-139021881D02*
X107961772Y-138199346D01*
X111260777Y-139021881D02*
X111986543Y-136110994D01*
%TO.C,SW34*%
X113296150Y-116804325D02*
X112570384Y-119715212D01*
X116595155Y-117626860D02*
X113296150Y-116804325D01*
X115869389Y-120537747D02*
X112570384Y-119715212D01*
X115869389Y-120537747D02*
X116595155Y-117626860D01*
%TO.C,SW18*%
X233858874Y-87577480D02*
X234584640Y-90488367D01*
X237157880Y-86754945D02*
X233858874Y-87577480D01*
X237883645Y-89665832D02*
X234584640Y-90488367D01*
X237883645Y-89665832D02*
X237157880Y-86754945D01*
%TO.C,SW9*%
X246006166Y-57553184D02*
X246731932Y-60464071D01*
X249305172Y-56730649D02*
X246006166Y-57553184D01*
X250030937Y-59641536D02*
X246731932Y-60464071D01*
X250030937Y-59641536D02*
X249305172Y-56730649D01*
%TO.C,SW56*%
X149137106Y-169915156D02*
X148411340Y-172826043D01*
X152436111Y-170737691D02*
X149137106Y-169915156D01*
X151710345Y-173648578D02*
X148411340Y-172826043D01*
X151710345Y-173648578D02*
X152436111Y-170737691D01*
%TO.C,SW83*%
X373541750Y-136193885D02*
X373541750Y-139193885D01*
X376941750Y-136193885D02*
X373541750Y-136193885D01*
X376941750Y-139193885D02*
X373541750Y-139193885D01*
X376941750Y-139193885D02*
X376941750Y-136193885D01*
%TO.C,SW46*%
X144503652Y-149126716D02*
X143777886Y-152037603D01*
X147802657Y-149949251D02*
X144503652Y-149126716D01*
X147076891Y-152860138D02*
X143777886Y-152037603D01*
X147076891Y-152860138D02*
X147802657Y-149949251D01*
%TO.C,SW54*%
X96571299Y-154354880D02*
X95845533Y-157265767D01*
X99870304Y-155177415D02*
X96571299Y-154354880D01*
X99144538Y-158088302D02*
X95845533Y-157265767D01*
X99144538Y-158088302D02*
X99870304Y-155177415D01*
%TO.C,SW67*%
X331473000Y-75075135D02*
X331473000Y-78075135D01*
X334873000Y-75075135D02*
X331473000Y-75075135D01*
X334873000Y-78075135D02*
X331473000Y-78075135D01*
X334873000Y-78075135D02*
X334873000Y-75075135D01*
%TO.C,SW71*%
X298135500Y-94125135D02*
X298135500Y-97125135D01*
X301535500Y-94125135D02*
X298135500Y-94125135D01*
X301535500Y-97125135D02*
X298135500Y-97125135D01*
X301535500Y-97125135D02*
X301535500Y-94125135D01*
%TO.C,SW5*%
X146182196Y-63650020D02*
X145456430Y-66560907D01*
X149481201Y-64472555D02*
X146182196Y-63650020D01*
X148755435Y-67383442D02*
X145456430Y-66560907D01*
X148755435Y-67383442D02*
X149481201Y-64472555D01*
%TO.C,SW43*%
X89627327Y-132990363D02*
X88901561Y-135901250D01*
X92926332Y-133812898D02*
X89627327Y-132990363D01*
X92200566Y-136723785D02*
X88901561Y-135901250D01*
X92200566Y-136723785D02*
X92926332Y-133812898D01*
%TO.C,SW7*%
X210190052Y-71391442D02*
X210915818Y-74302329D01*
X213489058Y-70568907D02*
X210190052Y-71391442D01*
X214214823Y-73479794D02*
X210915818Y-74302329D01*
X214214823Y-73479794D02*
X213489058Y-70568907D01*
%TO.C,SW11*%
X61756340Y-75075135D02*
X61756340Y-78075135D01*
X65156340Y-75075135D02*
X61756340Y-75075135D01*
X65156340Y-78075135D02*
X61756340Y-78075135D01*
X65156340Y-78075135D02*
X65156340Y-75075135D01*
%TO.C,SW29*%
X256375543Y-99142485D02*
X257101309Y-102053372D01*
X259674549Y-98319950D02*
X256375543Y-99142485D01*
X260400314Y-101230837D02*
X257101309Y-102053372D01*
X260400314Y-101230837D02*
X259674549Y-98319950D01*
%TO.C,SW47*%
X162987785Y-153735329D02*
X162262019Y-156646216D01*
X166286790Y-154557864D02*
X162987785Y-153735329D01*
X165561024Y-157468751D02*
X162262019Y-156646216D01*
X165561024Y-157468751D02*
X166286790Y-154557864D01*
%TO.C,SW73*%
X336235500Y-94125135D02*
X336235500Y-97125135D01*
X339635500Y-94125135D02*
X336235500Y-94125135D01*
X339635500Y-97125135D02*
X336235500Y-97125135D01*
X339635500Y-97125135D02*
X339635500Y-94125135D01*
%TO.C,SW51*%
X37943840Y-51262635D02*
X37943840Y-54262635D01*
X41343840Y-51262635D02*
X37943840Y-51262635D01*
X41343840Y-54262635D02*
X37943840Y-54262635D01*
X41343840Y-54262635D02*
X41343840Y-51262635D01*
%TO.C,SW20*%
X270827141Y-78360256D02*
X271552907Y-81271143D01*
X274126147Y-77537721D02*
X270827141Y-78360256D01*
X274851912Y-80448608D02*
X271552907Y-81271143D01*
X274851912Y-80448608D02*
X274126147Y-77537721D01*
%TO.C,SW6*%
X164090253Y-70569149D02*
X163364487Y-73480036D01*
X167389258Y-71391684D02*
X164090253Y-70569149D01*
X166663492Y-74302571D02*
X163364487Y-73480036D01*
X166663492Y-74302571D02*
X167389258Y-71391684D01*
%TO.C,SW79*%
X392592250Y-108412135D02*
X392592250Y-111412135D01*
X395992250Y-108412135D02*
X392592250Y-108412135D01*
X395992250Y-111412135D02*
X392592250Y-111412135D01*
X395992250Y-111412135D02*
X395992250Y-108412135D01*
%TO.C,SW31*%
X45087590Y-113175135D02*
X45087590Y-116175135D01*
X48487590Y-113175135D02*
X45087590Y-113175135D01*
X48487590Y-116175135D02*
X45087590Y-116175135D01*
X48487590Y-116175135D02*
X48487590Y-113175135D01*
%TO.C,SW57*%
X232074749Y-169009220D02*
X232800515Y-171920107D01*
X235373755Y-168186685D02*
X232074749Y-169009220D01*
X236099520Y-171097572D02*
X232800515Y-171920107D01*
X236099520Y-171097572D02*
X235373755Y-168186685D01*
%TO.C,SW19*%
X251766931Y-80658351D02*
X252492697Y-83569238D01*
X255065937Y-79835816D02*
X251766931Y-80658351D01*
X255791702Y-82746703D02*
X252492697Y-83569238D01*
X255791702Y-82746703D02*
X255065937Y-79835816D01*
%TO.C,SW39*%
X260984155Y-117626618D02*
X261709921Y-120537505D01*
X264283161Y-116804083D02*
X260984155Y-117626618D01*
X265008926Y-119714970D02*
X261709921Y-120537505D01*
X265008926Y-119714970D02*
X264283161Y-116804083D01*
%TO.C,SW37*%
X225168041Y-131464876D02*
X225893807Y-134375763D01*
X228467047Y-130642341D02*
X225168041Y-131464876D01*
X229192812Y-133553228D02*
X225893807Y-134375763D01*
X229192812Y-133553228D02*
X228467047Y-130642341D01*
%TO.C,SW45*%
X126595595Y-142207588D02*
X125869829Y-145118475D01*
X129894600Y-143030123D02*
X126595595Y-142207588D01*
X129168834Y-145941010D02*
X125869829Y-145118475D01*
X129168834Y-145941010D02*
X129894600Y-143030123D01*
%TO.C,SW81*%
X307660500Y-132225135D02*
X307660500Y-135225135D01*
X311060500Y-132225135D02*
X307660500Y-132225135D01*
X311060500Y-135225135D02*
X307660500Y-135225135D01*
X311060500Y-135225135D02*
X311060500Y-132225135D01*
%TO.C,SW4*%
X128274139Y-56730891D02*
X127548373Y-59641778D01*
X131573144Y-57553426D02*
X128274139Y-56730891D01*
X130847378Y-60464313D02*
X127548373Y-59641778D01*
X130847378Y-60464313D02*
X131573144Y-57553426D01*
%TO.C,SW65*%
X293373000Y-75075135D02*
X293373000Y-78075135D01*
X296773000Y-75075135D02*
X293373000Y-75075135D01*
X296773000Y-78075135D02*
X293373000Y-78075135D01*
X296773000Y-78075135D02*
X296773000Y-75075135D01*
%TO.C,SW26*%
X153720876Y-112158449D02*
X152995110Y-115069336D01*
X157019881Y-112980984D02*
X153720876Y-112158449D01*
X156294115Y-115891871D02*
X152995110Y-115069336D01*
X156294115Y-115891871D02*
X157019881Y-112980984D01*
%TO.C,SW69*%
X392592250Y-70312135D02*
X392592250Y-73312135D01*
X395992250Y-70312135D02*
X392592250Y-70312135D01*
X395992250Y-73312135D02*
X392592250Y-73312135D01*
X395992250Y-73312135D02*
X395992250Y-70312135D01*
%TO.C,SW85*%
X329091750Y-151275135D02*
X329091750Y-154275135D01*
X332491750Y-151275135D02*
X329091750Y-151275135D01*
X332491750Y-154275135D02*
X329091750Y-154275135D01*
X332491750Y-154275135D02*
X332491750Y-151275135D01*
%TD*%
M02*
