M48
; DRILL file {KiCad (7.0.0-0)} date Friday, April 21, 2023 at 01:35:02 PM
; FORMAT={-:-/ absolute / metric / decimal}
; #@! TF.CreationDate,2023-04-21T13:35:02-07:00
; #@! TF.GenerationSoftware,Kicad,Pcbnew,(7.0.0-0)
; #@! TF.FileFunction,Plated,1,2,PTH
FMAT,2
METRIC
; #@! TA.AperFunction,Plated,PTH,ViaDrill
T1C0.250
; #@! TA.AperFunction,Plated,PTH,ComponentDrill
T2C0.250
; #@! TA.AperFunction,Plated,PTH,ViaDrill
T3C0.400
; #@! TA.AperFunction,Plated,PTH,ComponentDrill
T4C0.762
; #@! TA.AperFunction,Plated,PTH,ComponentDrill
T5C0.800
; #@! TA.AperFunction,Plated,PTH,ComponentDrill
T6C0.813
; #@! TA.AperFunction,Plated,PTH,ComponentDrill
T7C1.000
; #@! TA.AperFunction,Plated,PTH,ComponentDrill
T8C1.020
; #@! TA.AperFunction,Plated,PTH,ComponentDrill
T9C1.100
%
G90
G05
T1
X44.326Y-147.915
X49.11Y-141.115
X58.936Y-55.662
X66.716Y-129.075
X68.076Y-149.305
X72.746Y-145.985
X76.466Y-47.735
X84.828Y-103.095
X93.133Y-128.028
X95.981Y-143.819
X100.176Y-124.985
X103.516Y-48.485
X121.506Y-51.595
X124.258Y-109.149
X135.846Y-58.665
X137.506Y-134.475
X155.116Y-141.295
X157.226Y-65.175
X161.336Y-142.805
X163.586Y-144.065
X169.436Y-164.515
X173.966Y-93.625
X173.966Y-73.035
X176.516Y-63.662
X182.486Y-100.335
X182.946Y-112.581
X183.366Y-131.771
X183.826Y-152.995
X184.894Y-163.331
X185.343Y-120.595
X185.343Y-146.695
X186.816Y-168.265
X188.766Y-186.61
X191.816Y-113.545
X193.322Y-120.605
X193.322Y-146.135
X193.323Y-125.605
X193.352Y-130.068
X201.506Y-57.885
X203.496Y-94.855
X207.176Y-63.665
X215.146Y-134.485
X222.016Y-161.155
X230.696Y-165.625
X232.896Y-80.985
X233.056Y-124.115
X233.24Y-146.59
X240.426Y-156.575
X242.768Y-175.587
X242.768Y-164.275
X250.366Y-75.385
X258.796Y-150.231
X262.496Y-69.925
X267.02Y-154.55
X269.466Y-74.265
X273.496Y-150.765
X279.161Y-163.745
X281.536Y-72.475
X282.206Y-73.145
X285.856Y-48.245
X291.816Y-71.945
X295.347Y-140.175
X301.336Y-108.725
X303.709Y-148.152
X304.883Y-48.173
X306.603Y-129.099
X307.367Y-115.515
X310.846Y-71.995
X311.546Y-115.535
X314.756Y-128.435
X315.56Y-90.981
X316.436Y-141.215
X318.946Y-109.55
X320.386Y-109.095
X321.086Y-128.48
X326.417Y-115.485
X327.476Y-148.035
X327.526Y-48.165
X328.716Y-109.975
X329.476Y-128.94
X330.436Y-115.485
X330.466Y-71.975
X330.732Y-122.145
X334.63Y-90.971
X337.006Y-125.635
X345.006Y-129.625
X346.566Y-48.185
X351.306Y-110.165
X352.916Y-152.075
X358.476Y-71.985
X358.48Y-90.971
X360.486Y-127.885
X361.689Y-122.145
X361.726Y-128.375
X362.756Y-128.985
X371.97Y-152.121
X374.756Y-129.585
X375.996Y-60.255
X375.996Y-70.395
X376.016Y-99.005
X378.376Y-149.805
X382.336Y-169.395
X384.136Y-137.575
X389.416Y-141.815
X391.0Y-152.101
X401.356Y-98.315
X401.376Y-164.155
X401.399Y-60.242
X401.399Y-65.102
T2
X33.992Y-151.86
X35.092Y-154.245
X36.082Y-150.885
X36.373Y-51.848
X37.473Y-54.232
X38.442Y-154.725
X38.463Y-50.872
X38.755Y-132.81
X39.432Y-151.215
X39.855Y-135.195
X40.823Y-54.712
X40.845Y-131.835
X41.813Y-51.203
X43.205Y-135.675
X43.517Y-113.76
X44.195Y-132.165
X44.617Y-116.145
X45.607Y-112.785
X47.967Y-116.625
X48.957Y-113.115
X50.661Y-94.71
X51.761Y-97.095
X52.751Y-93.735
X55.111Y-97.575
X56.101Y-94.065
X57.805Y-151.86
X58.905Y-154.245
X59.895Y-150.885
X60.186Y-75.66
X61.286Y-78.045
X62.255Y-154.725
X62.276Y-74.685
X63.245Y-151.215
X64.636Y-78.525
X64.948Y-132.81
X65.626Y-75.015
X66.048Y-135.195
X66.091Y-51.848
X67.038Y-131.835
X67.191Y-54.232
X68.181Y-50.872
X69.398Y-135.675
X69.711Y-113.76
X70.388Y-132.165
X70.541Y-54.712
X70.811Y-116.145
X71.531Y-51.203
X71.801Y-112.785
X74.161Y-116.625
X74.473Y-94.71
X75.151Y-113.115
X75.573Y-97.095
X76.563Y-93.735
X78.923Y-97.575
X79.236Y-75.66
X79.913Y-94.065
X80.336Y-78.045
X81.326Y-74.685
X83.686Y-78.525
X84.676Y-75.015
X85.141Y-51.848
X86.241Y-54.232
X87.231Y-50.872
X87.962Y-133.178
X88.452Y-135.758
X89.591Y-54.712
X90.226Y-132.737
X90.581Y-51.203
X91.587Y-137.034
X92.571Y-114.694
X93.061Y-117.274
X93.396Y-133.868
X94.834Y-114.253
X94.906Y-154.543
X95.396Y-157.123
X96.195Y-118.55
X97.17Y-154.102
X97.179Y-96.21
X97.67Y-98.79
X98.005Y-115.384
X98.531Y-158.399
X99.443Y-95.769
X100.34Y-155.233
X100.804Y-100.066
X101.788Y-77.726
X102.278Y-80.306
X102.614Y-96.9
X104.052Y-77.285
X105.413Y-81.582
X107.022Y-135.476
X107.222Y-78.416
X107.513Y-138.056
X107.549Y-54.62
X108.039Y-57.201
X109.286Y-135.036
X109.812Y-54.18
X110.647Y-139.332
X111.173Y-58.477
X111.631Y-116.992
X112.121Y-119.572
X112.457Y-136.166
X112.983Y-55.311
X113.895Y-116.551
X115.256Y-120.848
X116.239Y-98.508
X116.73Y-101.088
X117.065Y-117.682
X118.011Y-160.303
X118.501Y-162.883
X118.503Y-98.067
X119.864Y-102.364
X120.275Y-159.863
X120.848Y-80.024
X121.338Y-82.604
X121.636Y-164.16
X121.674Y-99.198
X123.112Y-79.583
X123.446Y-160.993
X124.473Y-83.88
X124.93Y-142.395
X125.421Y-144.975
X126.282Y-80.714
X126.609Y-56.919
X127.099Y-59.499
X127.194Y-141.955
X128.555Y-146.252
X128.873Y-56.478
X129.539Y-123.911
X130.029Y-126.491
X130.234Y-60.775
X130.365Y-143.085
X131.803Y-123.471
X132.043Y-57.609
X133.164Y-127.767
X134.147Y-105.427
X134.638Y-108.007
X134.973Y-124.601
X136.411Y-104.986
X137.772Y-109.283
X138.756Y-86.943
X139.246Y-89.523
X139.582Y-106.117
X141.02Y-86.502
X142.381Y-90.799
X142.838Y-149.314
X143.329Y-151.895
X144.191Y-87.633
X144.517Y-63.838
X145.007Y-66.418
X145.102Y-148.874
X146.463Y-153.171
X146.781Y-63.397
X147.447Y-130.83
X147.472Y-170.103
X147.937Y-133.41
X147.962Y-172.683
X148.142Y-67.694
X148.273Y-150.004
X149.711Y-130.39
X149.736Y-169.662
X149.951Y-64.528
X151.072Y-134.687
X151.096Y-173.959
X152.056Y-112.346
X152.546Y-114.926
X152.881Y-131.52
X152.906Y-170.793
X154.319Y-111.906
X155.68Y-116.202
X156.664Y-93.862
X157.154Y-96.442
X157.49Y-113.036
X158.928Y-93.421
X160.289Y-97.718
X161.322Y-153.923
X161.813Y-156.503
X162.099Y-94.552
X162.425Y-70.757
X162.915Y-73.337
X163.586Y-153.482
X164.689Y-70.316
X164.947Y-157.779
X166.05Y-74.613
X166.757Y-154.613
X167.859Y-71.447
X188.741Y-170.921
X188.741Y-184.51
X208.808Y-72.339
X209.91Y-155.505
X210.452Y-74.387
X210.6Y-70.887
X211.554Y-157.553
X211.702Y-154.053
X213.819Y-74.042
X213.93Y-70.397
X214.568Y-95.444
X214.921Y-157.208
X215.033Y-153.563
X216.213Y-97.492
X216.361Y-93.992
X219.177Y-113.928
X219.579Y-97.147
X219.691Y-93.502
X220.821Y-115.976
X220.969Y-112.477
X223.786Y-132.412
X224.188Y-115.632
X224.299Y-111.986
X225.43Y-134.46
X225.578Y-130.961
X226.716Y-65.42
X228.36Y-67.468
X228.394Y-150.897
X228.508Y-63.968
X228.797Y-134.116
X228.908Y-130.47
X230.039Y-152.944
X230.186Y-149.445
X230.692Y-169.957
X231.727Y-67.123
X231.838Y-63.478
X232.337Y-172.005
X232.477Y-88.525
X232.484Y-168.505
X233.405Y-152.6
X233.517Y-148.955
X234.121Y-90.573
X234.269Y-87.073
X235.703Y-171.66
X235.815Y-168.015
X237.085Y-107.009
X237.487Y-90.228
X237.599Y-86.583
X238.729Y-109.057
X238.877Y-105.557
X241.694Y-125.493
X242.096Y-108.712
X242.207Y-105.067
X243.338Y-127.541
X243.486Y-124.042
X244.624Y-58.501
X246.268Y-60.549
X246.302Y-143.977
X246.416Y-57.049
X246.705Y-127.197
X246.816Y-123.551
X247.947Y-146.025
X248.094Y-142.526
X249.635Y-60.204
X249.746Y-56.559
X250.385Y-81.606
X251.313Y-145.681
X251.425Y-142.035
X252.029Y-83.654
X252.177Y-80.154
X254.993Y-100.09
X255.395Y-83.309
X255.507Y-79.664
X256.637Y-102.138
X256.785Y-98.638
X259.602Y-118.574
X260.004Y-101.793
X260.116Y-98.148
X261.246Y-120.622
X261.394Y-117.122
X263.684Y-56.203
X264.21Y-137.058
X264.613Y-120.277
X264.724Y-116.632
X265.328Y-58.251
X265.476Y-54.751
X265.855Y-139.106
X266.002Y-135.607
X267.085Y-158.429
X268.695Y-57.906
X268.729Y-160.477
X268.806Y-54.261
X268.877Y-156.977
X269.221Y-138.762
X269.333Y-135.116
X269.445Y-79.308
X271.089Y-81.356
X271.237Y-77.856
X272.096Y-160.132
X272.207Y-156.487
X274.053Y-97.792
X274.456Y-81.011
X274.567Y-77.366
X275.698Y-99.84
X275.845Y-96.34
X278.662Y-116.276
X279.064Y-99.495
X279.176Y-95.85
X280.306Y-118.324
X280.454Y-114.824
X283.271Y-134.76
X283.673Y-117.979
X283.784Y-114.334
X284.915Y-136.808
X285.063Y-133.308
X285.834Y-51.848
X286.933Y-54.232
X287.923Y-50.872
X288.282Y-136.463
X288.393Y-132.818
X290.284Y-54.712
X291.274Y-51.203
X291.803Y-75.66
X292.902Y-78.045
X293.892Y-74.685
X296.252Y-78.525
X296.565Y-94.71
X297.243Y-75.015
X297.665Y-97.095
X298.655Y-93.735
X301.015Y-97.575
X301.327Y-113.76
X302.005Y-94.065
X302.428Y-116.145
X303.417Y-112.785
X303.709Y-151.86
X304.809Y-154.245
X304.883Y-51.848
X305.777Y-116.625
X305.799Y-150.885
X305.983Y-54.232
X306.09Y-132.81
X306.767Y-113.115
X306.974Y-50.872
X307.19Y-135.195
X308.159Y-154.725
X308.18Y-131.835
X309.149Y-151.215
X309.333Y-54.712
X310.323Y-51.203
X310.54Y-135.675
X310.852Y-75.66
X311.53Y-132.165
X311.952Y-78.045
X312.942Y-74.685
X315.303Y-78.525
X315.615Y-94.71
X316.292Y-75.015
X316.715Y-97.095
X317.705Y-93.735
X320.065Y-97.575
X320.377Y-113.76
X321.055Y-94.065
X321.477Y-116.145
X322.467Y-112.785
X324.827Y-116.625
X325.817Y-113.115
X327.521Y-51.848
X327.521Y-151.86
X328.621Y-54.232
X328.621Y-154.245
X329.611Y-50.872
X329.611Y-150.885
X329.902Y-75.66
X331.002Y-78.045
X331.971Y-54.712
X331.971Y-154.725
X331.993Y-74.685
X332.961Y-51.203
X332.961Y-151.215
X334.352Y-78.525
X334.665Y-94.71
X335.342Y-75.015
X335.765Y-97.095
X336.755Y-93.735
X337.046Y-132.81
X338.146Y-135.195
X339.115Y-97.575
X339.136Y-131.835
X340.105Y-94.065
X341.496Y-135.675
X342.486Y-132.165
X346.571Y-51.848
X347.671Y-54.232
X348.661Y-50.872
X351.021Y-54.712
X351.334Y-113.76
X352.011Y-51.203
X352.434Y-116.145
X352.921Y-155.829
X353.424Y-112.785
X354.021Y-158.214
X355.011Y-154.854
X355.784Y-116.625
X356.774Y-113.115
X357.371Y-158.694
X358.361Y-155.184
X358.477Y-75.66
X358.477Y-94.71
X359.577Y-78.045
X359.577Y-97.095
X360.567Y-74.685
X360.567Y-93.735
X362.928Y-78.525
X362.928Y-97.575
X363.917Y-75.015
X363.917Y-94.065
X365.621Y-51.847
X366.721Y-54.232
X367.711Y-50.872
X370.071Y-54.712
X371.061Y-51.202
X371.971Y-136.779
X371.971Y-155.829
X373.071Y-139.164
X373.071Y-158.214
X374.061Y-135.804
X374.061Y-154.854
X376.421Y-139.644
X376.421Y-158.694
X377.411Y-136.134
X377.411Y-155.184
X391.021Y-155.829
X391.022Y-51.847
X391.022Y-70.897
X391.022Y-89.947
X391.022Y-108.997
X392.121Y-158.214
X392.122Y-54.232
X392.122Y-73.282
X392.122Y-92.332
X392.122Y-111.382
X393.111Y-154.854
X393.112Y-50.872
X393.112Y-69.922
X393.112Y-88.972
X393.112Y-108.022
X395.471Y-158.694
X395.472Y-54.712
X395.472Y-73.762
X395.472Y-92.812
X395.472Y-111.862
X396.461Y-155.184
X396.462Y-51.202
X396.462Y-70.252
X396.462Y-89.302
X396.462Y-108.352
T3
X46.666Y-60.065
X76.446Y-60.205
X276.286Y-142.689
T4
X136.427Y-52.166
X146.285Y-54.624
T5
X204.073Y-52.527
X216.396Y-49.455
T6
X184.979Y-189.047
X184.979Y-189.047
X187.519Y-189.047
X187.519Y-189.047
X190.059Y-189.047
X190.059Y-189.047
X192.599Y-189.047
X192.599Y-189.047
T7
X129.591Y-50.711
X132.056Y-51.325
X181.776Y-171.825
X181.776Y-174.365
X181.776Y-176.905
X181.776Y-179.445
X181.776Y-181.985
X181.789Y-120.585
X181.789Y-125.585
X196.289Y-120.585
X196.289Y-123.085
X196.289Y-125.585
T8
X179.899Y-48.422
X179.899Y-50.962
X179.899Y-53.502
X179.899Y-56.042
X179.899Y-58.582
X179.899Y-61.122
X179.899Y-63.662
X179.899Y-66.203
X179.899Y-68.742
X179.899Y-71.282
X179.899Y-73.822
X179.899Y-76.362
X179.899Y-78.903
X179.899Y-81.442
X179.899Y-83.983
X179.899Y-86.522
X179.899Y-89.062
X179.899Y-91.602
X179.899Y-94.142
X179.899Y-96.682
X197.679Y-48.422
X197.679Y-50.962
X197.679Y-53.502
X197.679Y-56.042
X197.679Y-58.582
X197.679Y-61.122
X197.679Y-63.662
X197.679Y-66.203
X197.679Y-68.742
X197.679Y-71.282
X197.679Y-73.822
X197.679Y-76.362
X197.679Y-78.903
X197.679Y-81.442
X197.679Y-83.983
X197.679Y-86.522
X197.679Y-89.062
X197.679Y-91.602
X197.679Y-94.142
X197.679Y-96.682
T9
X29.007Y-149.93
X29.007Y-157.93
X31.388Y-49.917
X31.388Y-57.917
X33.77Y-130.88
X33.77Y-138.88
X38.532Y-111.83
X38.532Y-119.83
X45.676Y-92.78
X45.676Y-100.78
X52.82Y-149.93
X52.82Y-157.93
X55.201Y-73.73
X55.201Y-81.73
X59.963Y-130.88
X59.963Y-138.88
X61.106Y-49.917
X61.106Y-57.917
X64.726Y-111.83
X64.726Y-119.83
X69.488Y-92.78
X69.488Y-100.78
X74.251Y-73.73
X74.251Y-81.73
X80.156Y-49.917
X80.156Y-57.917
X81.654Y-137.881
X83.59Y-130.119
X86.263Y-119.397
X88.198Y-111.635
X88.598Y-159.246
X90.534Y-151.484
X90.871Y-100.913
X92.807Y-93.151
X95.48Y-82.429
X97.415Y-74.667
X100.714Y-140.18
X101.279Y-59.337
X102.65Y-132.417
X103.214Y-51.575
X105.323Y-121.695
X107.258Y-113.933
X109.932Y-103.211
X111.703Y-165.007
X111.867Y-95.449
X113.639Y-157.244
X114.54Y-84.727
X116.476Y-76.965
X118.623Y-147.099
X120.301Y-61.622
X120.558Y-139.336
X122.236Y-53.86
X123.231Y-128.615
X125.167Y-120.852
X127.84Y-110.13
X129.775Y-102.368
X132.448Y-91.646
X134.384Y-83.884
X136.531Y-154.018
X138.216Y-68.584
X138.466Y-146.255
X140.151Y-60.821
X141.139Y-135.534
X141.164Y-174.806
X143.075Y-127.771
X143.099Y-167.044
X145.748Y-117.05
X147.683Y-109.287
X149.009Y-55.865
X149.623Y-53.401
X150.238Y-50.936
X150.356Y-98.565
X152.292Y-90.803
X155.015Y-158.626
X156.116Y-75.484
X156.95Y-150.864
X158.051Y-67.721
X177.976Y-114.345
X177.976Y-122.345
X203.523Y-71.698
X204.381Y-154.211
X205.459Y-79.46
X206.316Y-161.974
X209.284Y-94.803
X211.219Y-102.565
X213.893Y-113.287
X215.828Y-121.05
X218.501Y-131.771
X220.437Y-139.534
X221.431Y-64.779
X223.11Y-150.255
X223.367Y-72.541
X225.045Y-158.018
X225.408Y-169.316
X227.192Y-87.884
X227.343Y-177.078
X229.127Y-95.646
X231.801Y-106.368
X233.736Y-114.13
X236.409Y-124.852
X238.345Y-132.615
X239.339Y-57.86
X241.018Y-143.336
X241.275Y-65.622
X242.953Y-151.099
X245.1Y-80.965
X247.036Y-88.727
X249.709Y-99.449
X251.644Y-107.211
X254.317Y-117.933
X256.253Y-125.695
X258.4Y-55.562
X258.926Y-136.417
X260.335Y-63.324
X260.861Y-144.18
X261.8Y-157.788
X263.736Y-165.55
X264.16Y-78.667
X266.096Y-86.429
X268.769Y-97.151
X270.704Y-104.913
X273.378Y-115.635
X275.313Y-123.397
X277.986Y-134.119
X279.922Y-141.881
X280.849Y-49.917
X280.849Y-57.917
X286.817Y-73.73
X286.817Y-81.73
X291.58Y-92.78
X291.58Y-100.78
X296.342Y-111.83
X296.342Y-119.83
X298.724Y-149.93
X298.724Y-157.93
X299.899Y-49.917
X299.899Y-57.917
X301.105Y-130.88
X301.105Y-138.88
X305.868Y-73.73
X305.868Y-81.73
X310.63Y-92.78
X310.63Y-100.78
X315.392Y-111.83
X315.392Y-119.83
X322.536Y-49.917
X322.536Y-57.917
X322.536Y-149.93
X322.536Y-157.93
X324.917Y-73.73
X324.917Y-81.73
X329.68Y-92.78
X329.68Y-100.78
X332.061Y-130.88
X332.061Y-138.88
X341.586Y-49.917
X341.586Y-57.917
X346.349Y-111.83
X346.349Y-119.83
X347.936Y-153.899
X347.936Y-161.899
X353.493Y-73.73
X353.493Y-81.73
X353.493Y-92.78
X353.493Y-100.78
X360.656Y-49.945
X360.656Y-57.945
X366.986Y-134.849
X366.986Y-142.849
X366.986Y-153.899
X366.986Y-161.899
X385.999Y-49.942
X385.999Y-57.942
X386.036Y-153.899
X386.036Y-161.899
X386.039Y-107.067
X386.039Y-115.067
X386.066Y-68.955
X386.066Y-76.955
X386.069Y-88.017
X386.069Y-96.017
T0
M30
