M48
; DRILL file {KiCad (7.0.0-0)} date Friday, April 21, 2023 at 01:35:02 PM
; FORMAT={-:-/ absolute / metric / decimal}
; #@! TF.CreationDate,2023-04-21T13:35:02-07:00
; #@! TF.GenerationSoftware,Kicad,Pcbnew,(7.0.0-0)
; #@! TF.FileFunction,NonPlated,1,2,NPTH
FMAT,2
METRIC
; #@! TA.AperFunction,NonPlated,NPTH,ComponentDrill
T1C1.000
; #@! TA.AperFunction,NonPlated,NPTH,ComponentDrill
T2C1.500
; #@! TA.AperFunction,NonPlated,NPTH,ComponentDrill
T3C1.750
; #@! TA.AperFunction,NonPlated,NPTH,ComponentDrill
T4C1.800
; #@! TA.AperFunction,NonPlated,NPTH,ComponentDrill
T5C2.200
; #@! TA.AperFunction,NonPlated,NPTH,ComponentDrill
T6C3.000
; #@! TA.AperFunction,NonPlated,NPTH,ComponentDrill
T7C3.988
; #@! TA.AperFunction,NonPlated,NPTH,ComponentDrill
T8C6.000
%
G90
G05
T1
X37.263Y-151.275
X37.263Y-154.275
X39.644Y-51.263
X39.644Y-54.262
X42.025Y-132.225
X42.025Y-135.225
X46.788Y-113.175
X46.788Y-116.175
X53.931Y-94.125
X53.931Y-97.125
X61.075Y-151.275
X61.075Y-154.275
X63.456Y-75.075
X63.456Y-78.075
X68.219Y-132.225
X68.219Y-135.225
X69.362Y-51.263
X69.362Y-54.262
X72.981Y-113.175
X72.981Y-116.175
X77.744Y-94.125
X77.744Y-97.125
X82.506Y-75.075
X82.506Y-78.075
X88.412Y-51.263
X88.412Y-54.262
X90.551Y-136.312
X91.277Y-133.402
X95.16Y-117.828
X95.885Y-114.917
X97.495Y-157.677
X98.221Y-154.766
X99.768Y-99.344
X100.494Y-96.433
X104.377Y-80.86
X105.103Y-77.949
X109.611Y-138.61
X110.138Y-57.755
X110.337Y-135.7
X110.863Y-54.844
X114.22Y-120.126
X114.946Y-117.216
X118.829Y-101.642
X119.554Y-98.731
X120.6Y-163.438
X121.326Y-160.527
X123.437Y-83.158
X124.163Y-80.247
X127.519Y-145.529
X128.245Y-142.619
X129.198Y-60.053
X129.924Y-57.142
X132.128Y-127.045
X132.854Y-124.135
X136.737Y-108.561
X137.462Y-105.651
X141.345Y-90.077
X142.071Y-87.166
X145.427Y-152.449
X146.153Y-149.538
X147.106Y-66.972
X147.832Y-64.061
X150.036Y-133.964
X150.061Y-173.237
X150.762Y-131.054
X150.787Y-170.326
X154.645Y-115.48
X155.37Y-112.57
X159.253Y-96.996
X159.979Y-94.086
X163.912Y-157.057
X164.637Y-154.147
X165.014Y-73.891
X165.74Y-70.98
X211.84Y-70.98
X212.565Y-73.891
X212.942Y-154.146
X213.668Y-157.057
X217.6Y-94.085
X218.326Y-96.996
X222.209Y-112.569
X222.935Y-115.48
X226.818Y-131.054
X227.543Y-133.964
X229.748Y-64.061
X230.473Y-66.972
X231.426Y-149.538
X232.152Y-152.448
X233.724Y-168.598
X234.45Y-171.509
X235.508Y-87.166
X236.234Y-90.077
X240.117Y-105.65
X240.843Y-108.561
X244.726Y-124.134
X245.451Y-127.045
X247.656Y-57.142
X248.381Y-60.053
X249.334Y-142.619
X250.06Y-145.529
X253.416Y-80.247
X254.142Y-83.158
X258.025Y-98.731
X258.751Y-101.642
X262.634Y-117.215
X263.359Y-120.126
X266.716Y-54.844
X267.242Y-135.699
X267.442Y-57.754
X267.968Y-138.61
X270.116Y-157.07
X270.842Y-159.981
X272.477Y-77.949
X273.202Y-80.86
X277.085Y-96.433
X277.811Y-99.344
X281.694Y-114.917
X282.42Y-117.828
X286.302Y-133.401
X287.028Y-136.312
X289.104Y-51.263
X289.104Y-54.262
X295.073Y-75.075
X295.073Y-78.075
X299.835Y-94.125
X299.835Y-97.125
X304.598Y-113.175
X304.598Y-116.175
X306.979Y-151.275
X306.979Y-154.275
X308.154Y-51.263
X308.154Y-54.262
X309.361Y-132.225
X309.361Y-135.225
X314.123Y-75.075
X314.123Y-78.075
X318.885Y-94.125
X318.885Y-97.125
X323.648Y-113.175
X323.648Y-116.175
X330.792Y-51.263
X330.792Y-54.262
X330.792Y-151.275
X330.792Y-154.275
X333.173Y-75.075
X333.173Y-78.075
X337.935Y-94.125
X337.935Y-97.125
X340.317Y-132.225
X340.317Y-135.225
X349.842Y-51.263
X349.842Y-54.262
X354.604Y-113.175
X354.604Y-116.175
X356.192Y-155.244
X356.192Y-158.244
X361.748Y-75.075
X361.748Y-78.075
X361.748Y-94.125
X361.748Y-97.125
X368.892Y-51.262
X368.892Y-54.262
X375.242Y-136.194
X375.242Y-139.194
X375.242Y-155.244
X375.242Y-158.244
X394.292Y-155.244
X394.292Y-158.244
X394.292Y-51.262
X394.292Y-54.262
X394.292Y-70.312
X394.292Y-73.312
X394.292Y-89.362
X394.292Y-92.362
X394.292Y-108.412
X394.292Y-111.412
T2
X186.364Y-51.582
X191.214Y-51.582
T3
X32.182Y-157.705
X32.182Y-157.705
X34.563Y-57.692
X34.563Y-57.692
X36.945Y-138.655
X36.945Y-138.655
X41.707Y-119.605
X41.707Y-119.605
X42.342Y-157.705
X42.342Y-157.705
X44.723Y-57.692
X44.723Y-57.692
X47.105Y-138.655
X47.105Y-138.655
X48.851Y-100.555
X48.851Y-100.555
X51.867Y-119.605
X51.867Y-119.605
X55.995Y-157.705
X55.995Y-157.705
X58.376Y-81.505
X58.376Y-81.505
X59.011Y-100.555
X59.011Y-100.555
X63.138Y-138.655
X63.138Y-138.655
X64.281Y-57.692
X64.281Y-57.692
X66.155Y-157.705
X66.155Y-157.705
X67.901Y-119.605
X67.901Y-119.605
X68.536Y-81.505
X68.536Y-81.505
X72.663Y-100.555
X72.663Y-100.555
X73.298Y-138.655
X73.298Y-138.655
X74.441Y-57.692
X74.441Y-57.692
X77.426Y-81.505
X77.426Y-81.505
X78.061Y-119.605
X78.061Y-119.605
X82.823Y-100.555
X82.823Y-100.555
X83.331Y-57.692
X83.331Y-57.692
X84.792Y-138.411
X84.792Y-138.411
X87.586Y-81.505
X87.586Y-81.505
X89.4Y-119.927
X89.4Y-119.927
X91.736Y-159.776
X91.736Y-159.776
X93.491Y-57.692
X93.491Y-57.692
X94.009Y-101.443
X94.009Y-101.443
X94.65Y-140.869
X94.65Y-140.869
X98.618Y-82.959
X98.618Y-82.959
X99.259Y-122.385
X99.259Y-122.385
X101.594Y-162.234
X101.594Y-162.234
X103.852Y-140.71
X103.852Y-140.71
X103.867Y-103.901
X103.867Y-103.901
X104.378Y-59.854
X104.378Y-59.854
X108.461Y-122.225
X108.461Y-122.225
X108.476Y-85.417
X108.476Y-85.417
X113.069Y-103.741
X113.069Y-103.741
X113.71Y-143.167
X113.71Y-143.167
X114.237Y-62.312
X114.237Y-62.312
X114.841Y-165.537
X114.841Y-165.537
X117.678Y-85.257
X117.678Y-85.257
X118.319Y-124.683
X118.319Y-124.683
X121.76Y-147.629
X121.76Y-147.629
X122.927Y-106.199
X122.927Y-106.199
X123.439Y-62.152
X123.439Y-62.152
X124.699Y-167.995
X124.699Y-167.995
X126.369Y-129.145
X126.369Y-129.145
X127.536Y-87.715
X127.536Y-87.715
X130.977Y-110.66
X130.977Y-110.66
X131.618Y-150.087
X131.618Y-150.087
X133.297Y-64.61
X133.297Y-64.61
X135.586Y-92.176
X135.586Y-92.176
X136.227Y-131.602
X136.227Y-131.602
X139.668Y-154.548
X139.668Y-154.548
X140.835Y-113.118
X140.835Y-113.118
X141.347Y-69.071
X141.347Y-69.071
X144.277Y-136.064
X144.277Y-136.064
X144.301Y-175.336
X144.301Y-175.336
X145.444Y-94.634
X145.444Y-94.634
X148.885Y-117.58
X148.885Y-117.58
X149.526Y-157.006
X149.526Y-157.006
X151.205Y-71.529
X151.205Y-71.529
X153.494Y-99.095
X153.494Y-99.095
X154.135Y-138.522
X154.135Y-138.522
X154.16Y-177.794
X154.16Y-177.794
X158.152Y-159.156
X158.152Y-159.156
X158.743Y-120.037
X158.743Y-120.037
X159.255Y-75.99
X159.255Y-75.99
X163.352Y-101.553
X163.352Y-101.553
X168.01Y-161.614
X168.01Y-161.614
X169.113Y-78.448
X169.113Y-78.448
X208.465Y-78.448
X208.465Y-78.448
X209.568Y-161.614
X209.568Y-161.614
X214.226Y-101.553
X214.226Y-101.553
X218.324Y-75.99
X218.324Y-75.99
X218.835Y-120.037
X218.835Y-120.037
X219.426Y-159.156
X219.426Y-159.156
X223.443Y-138.522
X223.443Y-138.522
X224.084Y-99.095
X224.084Y-99.095
X226.374Y-71.529
X226.374Y-71.529
X228.052Y-157.006
X228.052Y-157.006
X228.693Y-117.58
X228.693Y-117.58
X230.35Y-176.066
X230.35Y-176.066
X232.134Y-94.634
X232.134Y-94.634
X233.302Y-136.064
X233.302Y-136.064
X236.232Y-69.071
X236.232Y-69.071
X236.743Y-113.118
X236.743Y-113.118
X237.91Y-154.548
X237.91Y-154.548
X240.208Y-173.608
X240.208Y-173.608
X241.352Y-131.602
X241.352Y-131.602
X241.993Y-92.176
X241.993Y-92.176
X244.282Y-64.61
X244.282Y-64.61
X245.96Y-150.087
X245.96Y-150.087
X246.601Y-110.66
X246.601Y-110.66
X250.042Y-87.715
X250.042Y-87.715
X251.21Y-129.145
X251.21Y-129.145
X254.14Y-62.152
X254.14Y-62.152
X254.651Y-106.199
X254.651Y-106.199
X255.818Y-147.629
X255.818Y-147.629
X259.26Y-124.683
X259.26Y-124.683
X259.901Y-85.257
X259.901Y-85.257
X263.342Y-62.312
X263.342Y-62.312
X263.868Y-143.167
X263.868Y-143.167
X264.509Y-103.741
X264.509Y-103.741
X266.742Y-164.538
X266.742Y-164.538
X269.103Y-85.417
X269.103Y-85.417
X269.118Y-122.225
X269.118Y-122.225
X273.2Y-59.854
X273.2Y-59.854
X273.711Y-103.901
X273.711Y-103.901
X273.726Y-140.71
X273.726Y-140.71
X276.601Y-162.08
X276.601Y-162.08
X278.32Y-122.385
X278.32Y-122.385
X278.961Y-82.959
X278.961Y-82.959
X282.928Y-140.869
X282.928Y-140.869
X283.569Y-101.443
X283.569Y-101.443
X284.024Y-57.692
X284.024Y-57.692
X288.178Y-119.927
X288.178Y-119.927
X289.993Y-81.505
X289.993Y-81.505
X292.787Y-138.411
X292.787Y-138.411
X294.183Y-57.692
X294.183Y-57.692
X294.755Y-100.555
X294.755Y-100.555
X299.517Y-119.605
X299.517Y-119.605
X300.152Y-81.505
X300.152Y-81.505
X301.899Y-157.705
X301.899Y-157.705
X303.073Y-57.692
X303.073Y-57.692
X304.28Y-138.655
X304.28Y-138.655
X304.915Y-100.555
X304.915Y-100.555
X309.042Y-81.505
X309.042Y-81.505
X309.678Y-119.605
X309.678Y-119.605
X312.059Y-157.705
X312.059Y-157.705
X313.233Y-57.692
X313.233Y-57.692
X313.805Y-100.555
X313.805Y-100.555
X314.44Y-138.655
X314.44Y-138.655
X318.567Y-119.605
X318.567Y-119.605
X319.202Y-81.505
X319.202Y-81.505
X323.965Y-100.555
X323.965Y-100.555
X325.711Y-57.692
X325.711Y-57.692
X325.711Y-157.705
X325.711Y-157.705
X328.092Y-81.505
X328.092Y-81.505
X328.727Y-119.605
X328.727Y-119.605
X332.855Y-100.555
X332.855Y-100.555
X335.236Y-138.655
X335.236Y-138.655
X335.871Y-57.692
X335.871Y-57.692
X335.871Y-157.705
X335.871Y-157.705
X338.252Y-81.505
X338.252Y-81.505
X343.015Y-100.555
X343.015Y-100.555
X344.761Y-57.692
X344.761Y-57.692
X345.396Y-138.655
X345.396Y-138.655
X349.524Y-119.605
X349.524Y-119.605
X351.111Y-161.674
X351.111Y-161.674
X354.921Y-57.692
X354.921Y-57.692
X356.667Y-81.505
X356.667Y-81.505
X356.667Y-100.555
X356.667Y-100.555
X359.684Y-119.605
X359.684Y-119.605
X361.271Y-161.674
X361.271Y-161.674
X363.811Y-57.692
X363.811Y-57.692
X366.827Y-81.505
X366.827Y-81.505
X366.827Y-100.555
X366.827Y-100.555
X370.161Y-142.624
X370.161Y-142.624
X370.161Y-161.674
X370.161Y-161.674
X373.971Y-57.692
X373.971Y-57.692
X380.321Y-142.624
X380.321Y-142.624
X380.321Y-161.674
X380.321Y-161.674
X389.211Y-161.674
X389.211Y-161.674
X389.212Y-57.692
X389.212Y-57.692
X389.212Y-76.742
X389.212Y-76.742
X389.212Y-95.792
X389.212Y-95.792
X389.212Y-114.842
X389.212Y-114.842
X399.371Y-161.674
X399.371Y-161.674
X399.372Y-57.692
X399.372Y-57.692
X399.372Y-76.742
X399.372Y-76.742
X399.372Y-95.792
X399.372Y-95.792
X399.372Y-114.842
X399.372Y-114.842
T4
X186.064Y-48.552
X191.514Y-48.552
T5
X213.967Y-55.617
X215.413Y-61.414
X218.931Y-58.991
X220.146Y-55.596
X223.664Y-53.173
X225.116Y-58.995
T6
X34.722Y-162.785
X37.103Y-62.772
X39.485Y-143.735
X41.072Y-160.245
X43.453Y-60.232
X44.247Y-124.685
X45.835Y-141.195
X50.597Y-122.145
X51.391Y-105.635
X57.741Y-103.095
X58.535Y-162.785
X60.916Y-86.585
X64.885Y-160.245
X65.678Y-143.735
X66.821Y-62.772
X67.266Y-84.045
X70.441Y-124.685
X72.028Y-141.195
X73.171Y-60.232
X75.203Y-105.635
X76.791Y-122.145
X79.966Y-86.585
X81.553Y-103.095
X85.871Y-62.772
X86.027Y-143.955
X86.316Y-84.045
X90.636Y-125.471
X92.221Y-60.232
X92.803Y-143.027
X92.971Y-165.32
X95.245Y-106.987
X97.412Y-124.543
X99.747Y-164.391
X99.853Y-88.503
X102.02Y-106.058
X105.088Y-146.253
X105.614Y-65.397
X106.629Y-87.574
X109.696Y-127.769
X111.863Y-145.325
X112.39Y-64.469
X114.305Y-109.285
X116.076Y-171.08
X116.472Y-126.841
X118.913Y-90.801
X121.081Y-108.356
X122.852Y-170.152
X122.996Y-153.172
X124.674Y-67.696
X125.689Y-89.872
X127.604Y-134.688
X129.771Y-152.244
X131.45Y-66.767
X132.213Y-116.204
X134.38Y-133.76
X136.821Y-97.72
X138.989Y-115.276
X140.904Y-160.091
X142.582Y-74.615
X143.597Y-96.791
X145.512Y-141.607
X145.537Y-180.88
X147.679Y-159.163
X149.358Y-73.686
X150.121Y-123.123
X152.288Y-140.679
X152.313Y-179.951
X154.729Y-104.639
X156.897Y-122.195
X159.388Y-164.7
X160.49Y-81.534
X161.505Y-103.711
X166.164Y-163.772
X167.266Y-80.605
X212.159Y-82.763
X213.261Y-165.929
X217.706Y-78.762
X217.92Y-105.868
X218.808Y-161.928
X222.528Y-124.352
X223.467Y-101.867
X227.137Y-142.836
X228.075Y-120.351
X230.067Y-75.844
X231.746Y-161.32
X232.684Y-138.835
X234.044Y-180.381
X235.614Y-71.843
X235.828Y-98.949
X237.293Y-157.32
X239.591Y-176.38
X240.436Y-117.433
X241.375Y-94.948
X245.045Y-135.917
X245.983Y-113.432
X247.975Y-68.924
X249.654Y-154.401
X250.592Y-131.916
X253.522Y-64.924
X253.736Y-92.03
X255.201Y-150.4
X258.344Y-110.514
X259.283Y-88.029
X262.953Y-128.998
X263.891Y-106.513
X267.035Y-66.626
X267.562Y-147.482
X268.5Y-124.997
X270.436Y-168.853
X272.582Y-62.626
X272.796Y-89.732
X273.109Y-143.481
X275.983Y-164.852
X277.405Y-108.216
X278.343Y-85.731
X282.013Y-126.7
X282.952Y-104.215
X286.563Y-62.772
X286.622Y-145.184
X287.56Y-122.699
X292.169Y-141.183
X292.532Y-86.585
X292.913Y-60.232
X297.295Y-105.635
X298.882Y-84.045
X302.058Y-124.685
X303.645Y-103.095
X304.439Y-162.785
X305.613Y-62.772
X306.82Y-143.735
X308.407Y-122.145
X310.789Y-160.245
X311.582Y-86.585
X311.964Y-60.232
X313.17Y-141.195
X316.345Y-105.635
X317.933Y-84.045
X321.107Y-124.685
X322.695Y-103.095
X327.457Y-122.145
X328.251Y-62.772
X328.251Y-162.785
X330.632Y-86.585
X334.601Y-60.232
X334.601Y-160.245
X335.395Y-105.635
X336.982Y-84.045
X337.776Y-143.735
X341.745Y-103.095
X344.126Y-141.195
X347.301Y-62.772
X352.064Y-124.685
X353.651Y-60.232
X353.651Y-166.754
X358.414Y-122.145
X359.207Y-86.585
X359.207Y-105.635
X360.001Y-164.214
X365.558Y-84.045
X365.558Y-103.095
X366.351Y-62.772
X372.701Y-60.232
X372.701Y-147.704
X372.701Y-166.754
X379.051Y-145.164
X379.051Y-164.214
X391.751Y-166.754
X391.752Y-62.772
X391.752Y-81.822
X391.752Y-100.872
X391.752Y-119.922
X398.101Y-164.214
X398.102Y-60.232
X398.102Y-79.282
X398.102Y-98.332
X398.102Y-117.382
T7
X37.262Y-157.705
X37.262Y-157.705
X39.643Y-57.692
X39.643Y-57.692
X42.025Y-138.655
X42.025Y-138.655
X46.787Y-119.605
X46.787Y-119.605
X53.931Y-100.555
X53.931Y-100.555
X61.075Y-157.705
X61.075Y-157.705
X63.456Y-81.505
X63.456Y-81.505
X68.218Y-138.655
X68.218Y-138.655
X69.361Y-57.692
X69.361Y-57.692
X72.981Y-119.605
X72.981Y-119.605
X77.743Y-100.555
X77.743Y-100.555
X82.506Y-81.505
X82.506Y-81.505
X88.411Y-57.692
X88.411Y-57.692
X89.721Y-139.64
X89.721Y-139.64
X94.329Y-121.156
X94.329Y-121.156
X96.665Y-161.005
X96.665Y-161.005
X98.938Y-102.672
X98.938Y-102.672
X103.547Y-84.188
X103.547Y-84.188
X108.781Y-141.938
X108.781Y-141.938
X109.307Y-61.083
X109.307Y-61.083
X113.39Y-123.454
X113.39Y-123.454
X117.998Y-104.97
X117.998Y-104.97
X119.77Y-166.766
X119.77Y-166.766
X122.607Y-86.486
X122.607Y-86.486
X126.689Y-148.858
X126.689Y-148.858
X128.368Y-63.381
X128.368Y-63.381
X131.298Y-130.373
X131.298Y-130.373
X135.906Y-111.889
X135.906Y-111.889
X140.515Y-93.405
X140.515Y-93.405
X144.597Y-155.777
X144.597Y-155.777
X146.276Y-70.3
X146.276Y-70.3
X149.206Y-137.293
X149.206Y-137.293
X149.231Y-176.565
X149.231Y-176.565
X153.814Y-118.808
X153.814Y-118.808
X158.423Y-100.324
X158.423Y-100.324
X163.081Y-160.385
X163.081Y-160.385
X164.184Y-77.219
X164.184Y-77.219
X213.395Y-77.219
X213.395Y-77.219
X214.497Y-160.385
X214.497Y-160.385
X219.155Y-100.324
X219.155Y-100.324
X223.764Y-118.808
X223.764Y-118.808
X228.373Y-137.293
X228.373Y-137.293
X231.303Y-70.3
X231.303Y-70.3
X232.981Y-155.777
X232.981Y-155.777
X235.279Y-174.837
X235.279Y-174.837
X237.063Y-93.405
X237.063Y-93.405
X241.672Y-111.889
X241.672Y-111.889
X246.281Y-130.373
X246.281Y-130.373
X249.211Y-63.381
X249.211Y-63.381
X250.889Y-148.858
X250.889Y-148.858
X254.971Y-86.486
X254.971Y-86.486
X259.58Y-104.97
X259.58Y-104.97
X264.189Y-123.454
X264.189Y-123.454
X268.271Y-61.083
X268.271Y-61.083
X268.797Y-141.938
X268.797Y-141.938
X271.671Y-163.309
X271.671Y-163.309
X274.032Y-84.188
X274.032Y-84.188
X278.64Y-102.672
X278.64Y-102.672
X283.249Y-121.156
X283.249Y-121.156
X287.858Y-139.64
X287.858Y-139.64
X289.103Y-57.692
X289.103Y-57.692
X295.072Y-81.505
X295.072Y-81.505
X299.835Y-100.555
X299.835Y-100.555
X304.597Y-119.605
X304.597Y-119.605
X306.979Y-157.705
X306.979Y-157.705
X308.154Y-57.692
X308.154Y-57.692
X309.36Y-138.655
X309.36Y-138.655
X314.123Y-81.505
X314.123Y-81.505
X318.885Y-100.555
X318.885Y-100.555
X323.647Y-119.605
X323.647Y-119.605
X330.791Y-57.692
X330.791Y-57.692
X330.791Y-157.705
X330.791Y-157.705
X333.172Y-81.505
X333.172Y-81.505
X337.935Y-100.555
X337.935Y-100.555
X340.316Y-138.655
X340.316Y-138.655
X349.841Y-57.692
X349.841Y-57.692
X354.604Y-119.605
X354.604Y-119.605
X356.191Y-161.674
X356.191Y-161.674
X361.748Y-81.505
X361.748Y-81.505
X361.748Y-100.555
X361.748Y-100.555
X368.891Y-57.692
X368.891Y-57.692
X375.241Y-142.624
X375.241Y-142.624
X375.241Y-161.674
X375.241Y-161.674
X394.291Y-161.674
X394.291Y-161.674
X394.292Y-57.692
X394.292Y-57.692
X394.292Y-76.742
X394.292Y-76.742
X394.292Y-95.792
X394.292Y-95.792
X394.292Y-114.842
X394.292Y-114.842
T8
X168.736Y-58.135
T2
X189.439Y-117.485G85X188.139Y-117.485
G05
X189.439Y-128.685G85X188.139Y-128.685
G05
T0
M30
