%TF.GenerationSoftware,KiCad,Pcbnew,(7.0.0-0)*%
%TF.CreationDate,2023-04-21T13:34:59-07:00*%
%TF.ProjectId,redherring_v2,72656468-6572-4726-996e-675f76322e6b,rev?*%
%TF.SameCoordinates,Original*%
%TF.FileFunction,Paste,Bot*%
%TF.FilePolarity,Positive*%
%FSLAX46Y46*%
G04 Gerber Fmt 4.6, Leading zero omitted, Abs format (unit mm)*
G04 Created by KiCad (PCBNEW (7.0.0-0)) date 2023-04-21 13:34:59*
%MOMM*%
%LPD*%
G01*
G04 APERTURE LIST*
G04 Aperture macros list*
%AMRoundRect*
0 Rectangle with rounded corners*
0 $1 Rounding radius*
0 $2 $3 $4 $5 $6 $7 $8 $9 X,Y pos of 4 corners*
0 Add a 4 corners polygon primitive as box body*
4,1,4,$2,$3,$4,$5,$6,$7,$8,$9,$2,$3,0*
0 Add four circle primitives for the rounded corners*
1,1,$1+$1,$2,$3*
1,1,$1+$1,$4,$5*
1,1,$1+$1,$6,$7*
1,1,$1+$1,$8,$9*
0 Add four rect primitives between the rounded corners*
20,1,$1+$1,$2,$3,$4,$5,0*
20,1,$1+$1,$4,$5,$6,$7,0*
20,1,$1+$1,$6,$7,$8,$9,0*
20,1,$1+$1,$8,$9,$2,$3,0*%
%AMFreePoly0*
4,1,13,-1.275000,1.000000,-1.255970,1.095671,-1.201777,1.176777,-1.120671,1.230970,-1.025000,1.250000,1.275000,1.250000,1.275000,-1.250000,-1.025000,-1.250000,-1.120671,-1.230970,-1.201777,-1.176777,-1.255970,-1.095671,-1.275000,-1.000000,-1.275000,1.000000,-1.275000,1.000000,$1*%
%AMFreePoly1*
4,1,13,-1.275000,1.250000,1.025000,1.250000,1.120671,1.230970,1.201777,1.176777,1.255970,1.095671,1.275000,1.000000,1.275000,-1.000000,1.255970,-1.095671,1.201777,-1.176777,1.120671,-1.230970,1.025000,-1.250000,-1.275000,-1.250000,-1.275000,1.250000,-1.275000,1.250000,$1*%
G04 Aperture macros list end*
%ADD10RoundRect,0.225000X-0.418293X0.127596X-0.309428X-0.309037X0.418293X-0.127596X0.309428X0.309037X0*%
%ADD11RoundRect,0.225000X-0.375000X0.225000X-0.375000X-0.225000X0.375000X-0.225000X0.375000X0.225000X0*%
%ADD12FreePoly0,180.000000*%
%ADD13FreePoly1,180.000000*%
%ADD14FreePoly0,194.000000*%
%ADD15FreePoly1,194.000000*%
%ADD16RoundRect,0.225000X-0.309428X0.309037X-0.418293X-0.127596X0.309428X-0.309037X0.418293X0.127596X0*%
%ADD17FreePoly0,166.000000*%
%ADD18FreePoly1,166.000000*%
%ADD19R,1.955800X2.311400*%
G04 APERTURE END LIST*
D10*
%TO.C,D49*%
X223678420Y-152535635D03*
X224476762Y-155737611D03*
%TD*%
D11*
%TO.C,D68*%
X353492500Y-76080000D03*
X353492500Y-79380000D03*
%TD*%
D10*
%TO.C,D9*%
X239907933Y-60139810D03*
X240706275Y-63341786D03*
%TD*%
%TO.C,D18*%
X227760641Y-90164106D03*
X228558983Y-93366082D03*
%TD*%
D12*
%TO.C,SW84*%
X314063749Y-160244999D03*
D13*
X301136749Y-162784999D03*
%TD*%
D10*
%TO.C,D60*%
X278554745Y-136399282D03*
X279353087Y-139601258D03*
%TD*%
D14*
%TO.C,SW49*%
X240470222Y-156527267D03*
D15*
X228541691Y-162119142D03*
%TD*%
D16*
%TO.C,D24*%
X111298555Y-97729111D03*
X110500213Y-100931087D03*
%TD*%
D17*
%TO.C,SW25*%
X142166374Y-116067904D03*
D18*
X129008879Y-115405131D03*
%TD*%
D10*
%TO.C,D48*%
X204949302Y-156491552D03*
X205747644Y-159693528D03*
%TD*%
%TO.C,D28*%
X232369253Y-108648239D03*
X233167595Y-111850215D03*
%TD*%
D11*
%TO.C,D88*%
X386036250Y-156248750D03*
X386036250Y-159548750D03*
%TD*%
%TO.C,D11*%
X55200840Y-76080000D03*
X55200840Y-79380000D03*
%TD*%
D16*
%TO.C,D16*%
X151723281Y-93083235D03*
X150924939Y-96285211D03*
%TD*%
D12*
%TO.C,SW87*%
X382326249Y-164213749D03*
D13*
X369399249Y-166753749D03*
%TD*%
D11*
%TO.C,D12*%
X74250840Y-76080000D03*
X74250840Y-79380000D03*
%TD*%
%TO.C,D52*%
X29007090Y-152280000D03*
X29007090Y-155580000D03*
%TD*%
D14*
%TO.C,SW8*%
X238791678Y-71050571D03*
D15*
X226863147Y-76642446D03*
%TD*%
D16*
%TO.C,D5*%
X139582379Y-63101552D03*
X138784037Y-66303528D03*
%TD*%
D14*
%TO.C,SW27*%
X231252998Y-119559000D03*
D15*
X219324467Y-125150875D03*
%TD*%
D16*
%TO.C,D33*%
X87629733Y-113915149D03*
X86831391Y-117117125D03*
%TD*%
D11*
%TO.C,D70*%
X360655840Y-52295000D03*
X360655840Y-55595000D03*
%TD*%
D14*
%TO.C,SW17*%
X226644386Y-101074867D03*
D15*
X214715855Y-106666742D03*
%TD*%
D11*
%TO.C,D76*%
X296342500Y-114180000D03*
X296342500Y-117480000D03*
%TD*%
%TO.C,D65*%
X286817500Y-76080000D03*
X286817500Y-79380000D03*
%TD*%
D12*
%TO.C,SW32*%
X80065839Y-122144999D03*
D13*
X67138839Y-124684999D03*
%TD*%
D19*
%TO.C,LS1*%
X188741339Y-170920499D03*
X188741339Y-184509499D03*
%TD*%
D16*
%TO.C,D34*%
X106689943Y-116213244D03*
X105891601Y-119415220D03*
%TD*%
%TO.C,D47*%
X156381578Y-153144248D03*
X155583236Y-156346224D03*
%TD*%
D10*
%TO.C,D58*%
X262368706Y-160068105D03*
X263167048Y-163270081D03*
%TD*%
D11*
%TO.C,D22*%
X69488340Y-95130000D03*
X69488340Y-98430000D03*
%TD*%
D10*
%TO.C,D10*%
X258968143Y-57841715D03*
X259766485Y-61043691D03*
%TD*%
D12*
%TO.C,SW77*%
X330732499Y-122144999D03*
D13*
X317805499Y-124684999D03*
%TD*%
D12*
%TO.C,SW76*%
X311682499Y-122144999D03*
D13*
X298755499Y-124684999D03*
%TD*%
D14*
%TO.C,SW58*%
X279160508Y-164059737D03*
D15*
X267231977Y-169651612D03*
%TD*%
D16*
%TO.C,D44*%
X102081331Y-134697378D03*
X101282989Y-137899354D03*
%TD*%
D12*
%TO.C,SW42*%
X75303339Y-141194999D03*
D13*
X62376339Y-143734999D03*
%TD*%
D16*
%TO.C,D43*%
X83021120Y-132399282D03*
X82222778Y-135601258D03*
%TD*%
D11*
%TO.C,D72*%
X310630000Y-95130000D03*
X310630000Y-98430000D03*
%TD*%
D12*
%TO.C,SW80*%
X401376749Y-60231999D03*
D13*
X388449749Y-62771999D03*
%TD*%
D12*
%TO.C,SW12*%
X89590839Y-84044999D03*
D13*
X76663839Y-86584999D03*
%TD*%
D17*
%TO.C,SW23*%
X105198107Y-106850680D03*
D18*
X92040612Y-106187907D03*
%TD*%
D10*
%TO.C,D20*%
X264728908Y-80946882D03*
X265527250Y-84148858D03*
%TD*%
%TO.C,D7*%
X204091819Y-73978068D03*
X204890161Y-77180044D03*
%TD*%
D14*
%TO.C,SW48*%
X221986089Y-161135880D03*
D15*
X210057558Y-166727755D03*
%TD*%
D12*
%TO.C,SW82*%
X347401249Y-141194999D03*
D13*
X334474249Y-143734999D03*
%TD*%
D10*
%TO.C,D59*%
X259494534Y-138697378D03*
X260292876Y-141899354D03*
%TD*%
D11*
%TO.C,D71*%
X291580000Y-95130000D03*
X291580000Y-98430000D03*
%TD*%
D10*
%TO.C,D27*%
X214461196Y-115567368D03*
X215259538Y-118769344D03*
%TD*%
D12*
%TO.C,SW22*%
X84828339Y-103094999D03*
D13*
X71901339Y-105634999D03*
%TD*%
D11*
%TO.C,D53*%
X52819590Y-152280000D03*
X52819590Y-155580000D03*
%TD*%
D17*
%TO.C,SW36*%
X155465819Y-141471167D03*
D18*
X142308324Y-140808394D03*
%TD*%
D16*
%TO.C,D25*%
X129206612Y-104648239D03*
X128408270Y-107850215D03*
%TD*%
D11*
%TO.C,D66*%
X305867500Y-76080000D03*
X305867500Y-79380000D03*
%TD*%
D12*
%TO.C,SW41*%
X49109589Y-141194999D03*
D13*
X36182589Y-143734999D03*
%TD*%
D17*
%TO.C,SW14*%
X128866929Y-90664642D03*
D18*
X115709434Y-90001869D03*
%TD*%
D11*
%TO.C,D84*%
X298723750Y-152280000D03*
X298723750Y-155580000D03*
%TD*%
D10*
%TO.C,D40*%
X273946132Y-117915149D03*
X274744474Y-121117125D03*
%TD*%
D14*
%TO.C,SW10*%
X275759945Y-61833347D03*
D15*
X263831414Y-67425222D03*
%TD*%
D11*
%TO.C,D75*%
X386068840Y-90367000D03*
X386068840Y-93667000D03*
%TD*%
D16*
%TO.C,D55*%
X113070259Y-159524564D03*
X112271917Y-162726540D03*
%TD*%
D12*
%TO.C,SW21*%
X61015839Y-103094999D03*
D13*
X48088839Y-105634999D03*
%TD*%
D16*
%TO.C,D3*%
X102645840Y-53855000D03*
X101847498Y-57056976D03*
%TD*%
D14*
%TO.C,SW30*%
X286129322Y-103422647D03*
D15*
X274200791Y-109014522D03*
%TD*%
D12*
%TO.C,SW63*%
X337876249Y-60232499D03*
D13*
X324949249Y-62772499D03*
%TD*%
D14*
%TO.C,SW50*%
X258378279Y-149608139D03*
D15*
X246449748Y-155200014D03*
%TD*%
D16*
%TO.C,D36*%
X142506057Y-130051502D03*
X141707715Y-133253478D03*
%TD*%
D17*
%TO.C,SW33*%
X100589495Y-125334814D03*
D18*
X87432000Y-124672041D03*
%TD*%
D17*
%TO.C,SW16*%
X164683043Y-104502900D03*
D18*
X151525548Y-103840127D03*
%TD*%
D17*
%TO.C,SW55*%
X126030021Y-170944229D03*
D18*
X112872526Y-170281456D03*
%TD*%
D14*
%TO.C,SW38*%
X253769667Y-131124005D03*
D15*
X241841136Y-136715880D03*
%TD*%
D17*
%TO.C,SW35*%
X137557762Y-134552038D03*
D18*
X124400267Y-133889265D03*
%TD*%
D17*
%TO.C,SW13*%
X109806719Y-88366547D03*
D18*
X96649224Y-87703774D03*
%TD*%
D12*
%TO.C,SW53*%
X68159589Y-160244999D03*
D13*
X55232589Y-162784999D03*
%TD*%
D12*
%TO.C,SW66*%
X321207499Y-84044999D03*
D13*
X308280499Y-86584999D03*
%TD*%
D16*
%TO.C,D56*%
X142530899Y-169324075D03*
X141732557Y-172526051D03*
%TD*%
D12*
%TO.C,SW72*%
X325969999Y-103094999D03*
D13*
X313042999Y-105634999D03*
%TD*%
D16*
%TO.C,D4*%
X121667932Y-56139810D03*
X120869590Y-59341786D03*
%TD*%
D12*
%TO.C,SW62*%
X315238499Y-60232499D03*
D13*
X302311499Y-62772499D03*
%TD*%
D17*
%TO.C,SW3*%
X115567484Y-65261380D03*
D18*
X102409989Y-64598607D03*
%TD*%
D11*
%TO.C,D64*%
X341586250Y-52267500D03*
X341586250Y-55567500D03*
%TD*%
D12*
%TO.C,SW61*%
X296188499Y-60232499D03*
D13*
X283261499Y-62772499D03*
%TD*%
D12*
%TO.C,SW52*%
X44347089Y-160244999D03*
D13*
X31420089Y-162784999D03*
%TD*%
D11*
%TO.C,D77*%
X315392500Y-114180000D03*
X315392500Y-117480000D03*
%TD*%
D10*
%TO.C,D39*%
X254885922Y-120213244D03*
X255684264Y-123415220D03*
%TD*%
%TO.C,D30*%
X269337520Y-99431015D03*
X270135862Y-102632991D03*
%TD*%
%TO.C,D57*%
X225976516Y-171595846D03*
X226774858Y-174797822D03*
%TD*%
D16*
%TO.C,D14*%
X115907167Y-79244977D03*
X115108825Y-82446953D03*
%TD*%
D11*
%TO.C,D69*%
X386065840Y-71305000D03*
X386065840Y-74605000D03*
%TD*%
D17*
%TO.C,SW15*%
X146774986Y-97583771D03*
D18*
X133617491Y-96920998D03*
%TD*%
D11*
%TO.C,D2*%
X80156340Y-52267500D03*
X80156340Y-55567500D03*
%TD*%
%TO.C,D1*%
X61106340Y-52267500D03*
X61106340Y-55567500D03*
%TD*%
D14*
%TO.C,SW40*%
X290737934Y-121906781D03*
D15*
X278809403Y-127498656D03*
%TD*%
D12*
%TO.C,SW86*%
X363276249Y-164213749D03*
D13*
X350349249Y-166753749D03*
%TD*%
D14*
%TO.C,SW59*%
X276286336Y-142689010D03*
D15*
X264357805Y-148280885D03*
%TD*%
D12*
%TO.C,SW68*%
X368832499Y-84044999D03*
D13*
X355905499Y-86584999D03*
%TD*%
D12*
%TO.C,SW64*%
X356926249Y-60232499D03*
D13*
X343999249Y-62772499D03*
%TD*%
D17*
%TO.C,SW24*%
X124258317Y-109148776D03*
D18*
X111100822Y-108486003D03*
%TD*%
D12*
%TO.C,SW75*%
X401376749Y-98331999D03*
D13*
X388449749Y-100871999D03*
%TD*%
D11*
%TO.C,D67*%
X324917500Y-76080000D03*
X324917500Y-79380000D03*
%TD*%
D12*
%TO.C,SW78*%
X361688749Y-122144999D03*
D13*
X348761749Y-124684999D03*
%TD*%
D12*
%TO.C,SW74*%
X368832499Y-103094999D03*
D13*
X355905499Y-105634999D03*
%TD*%
D12*
%TO.C,SW70*%
X375976249Y-60231799D03*
D13*
X363049249Y-62771799D03*
%TD*%
D11*
%TO.C,D51*%
X31388340Y-52267500D03*
X31388340Y-55567500D03*
%TD*%
D14*
%TO.C,SW28*%
X249161055Y-112639871D03*
D15*
X237232524Y-118231746D03*
%TD*%
D10*
%TO.C,D19*%
X245668698Y-83244977D03*
X246467040Y-86446953D03*
%TD*%
D16*
%TO.C,D54*%
X89965092Y-153763799D03*
X89166750Y-156965775D03*
%TD*%
D12*
%TO.C,SW2*%
X95496339Y-60232499D03*
D13*
X82569339Y-62772499D03*
%TD*%
D10*
%TO.C,D8*%
X221999876Y-67058939D03*
X222798218Y-70260915D03*
%TD*%
D12*
%TO.C,SW88*%
X401376249Y-164213749D03*
D13*
X388449249Y-166753749D03*
%TD*%
D12*
%TO.C,SW1*%
X76446339Y-60232499D03*
D13*
X63519339Y-62772499D03*
%TD*%
D11*
%TO.C,D78*%
X346348750Y-114180000D03*
X346348750Y-117480000D03*
%TD*%
%TO.C,D74*%
X353492500Y-95130000D03*
X353492500Y-98430000D03*
%TD*%
D16*
%TO.C,D26*%
X147114669Y-111567368D03*
X146316327Y-114769344D03*
%TD*%
D11*
%TO.C,D85*%
X322536250Y-152280000D03*
X322536250Y-155580000D03*
%TD*%
%TO.C,D61*%
X280848500Y-52267500D03*
X280848500Y-55567500D03*
%TD*%
D14*
%TO.C,SW60*%
X295346547Y-140390914D03*
D15*
X283418016Y-145982789D03*
%TD*%
D17*
%TO.C,SW44*%
X115041093Y-146117043D03*
D18*
X101883598Y-145454270D03*
%TD*%
D10*
%TO.C,D38*%
X236977865Y-127132373D03*
X237776207Y-130334349D03*
%TD*%
D17*
%TO.C,SW34*%
X119649705Y-127632909D03*
D18*
X106492210Y-126970136D03*
%TD*%
D14*
%TO.C,SW18*%
X244552443Y-94155738D03*
D15*
X232623912Y-99747613D03*
%TD*%
D14*
%TO.C,SW9*%
X256699735Y-64131442D03*
D15*
X244771204Y-69723317D03*
%TD*%
D17*
%TO.C,SW56*%
X155490661Y-180743740D03*
D18*
X142333166Y-180080967D03*
%TD*%
D12*
%TO.C,SW83*%
X382326249Y-145163749D03*
D13*
X369399249Y-147703749D03*
%TD*%
D11*
%TO.C,D79*%
X386038840Y-109417000D03*
X386038840Y-112717000D03*
%TD*%
D17*
%TO.C,SW46*%
X150857207Y-159955300D03*
D18*
X137699712Y-159292527D03*
%TD*%
D17*
%TO.C,SW54*%
X102924854Y-165183464D03*
D18*
X89767359Y-164520691D03*
%TD*%
D16*
%TO.C,D46*%
X137897445Y-148535635D03*
X137099103Y-151737611D03*
%TD*%
D12*
%TO.C,SW67*%
X340257499Y-84044999D03*
D13*
X327330499Y-86584999D03*
%TD*%
D12*
%TO.C,SW71*%
X306919999Y-103094999D03*
D13*
X293992999Y-105634999D03*
%TD*%
D10*
%TO.C,D50*%
X241586477Y-145616507D03*
X242384819Y-148818483D03*
%TD*%
%TO.C,D17*%
X209852584Y-97083235D03*
X210650926Y-100285211D03*
%TD*%
D11*
%TO.C,D73*%
X329680000Y-95130000D03*
X329680000Y-98430000D03*
%TD*%
%TO.C,D32*%
X64725840Y-114180000D03*
X64725840Y-117480000D03*
%TD*%
D17*
%TO.C,SW5*%
X152535751Y-74478604D03*
D18*
X139378256Y-73815831D03*
%TD*%
D17*
%TO.C,SW43*%
X95980882Y-143818947D03*
D18*
X82823387Y-143156174D03*
%TD*%
D14*
%TO.C,SW7*%
X220883621Y-77969700D03*
D15*
X208955090Y-83561575D03*
%TD*%
D12*
%TO.C,SW11*%
X70540839Y-84044999D03*
D13*
X57613839Y-86584999D03*
%TD*%
D16*
%TO.C,D6*%
X157482379Y-70001552D03*
X156684037Y-73203528D03*
%TD*%
D10*
%TO.C,D29*%
X250277310Y-101729111D03*
X251075652Y-104931087D03*
%TD*%
D14*
%TO.C,SW29*%
X267069112Y-105720743D03*
D15*
X255140581Y-111312618D03*
%TD*%
D16*
%TO.C,D15*%
X133815224Y-86164106D03*
X133016882Y-89366082D03*
%TD*%
D11*
%TO.C,D31*%
X38532090Y-114180000D03*
X38532090Y-117480000D03*
%TD*%
D17*
%TO.C,SW47*%
X169341340Y-164563913D03*
D18*
X156183845Y-163901140D03*
%TD*%
D11*
%TO.C,D42*%
X59963340Y-133230000D03*
X59963340Y-136530000D03*
%TD*%
%TO.C,D21*%
X45675840Y-95130000D03*
X45675840Y-98430000D03*
%TD*%
D12*
%TO.C,SW73*%
X345019999Y-103094999D03*
D13*
X332092999Y-105634999D03*
%TD*%
D11*
%TO.C,D89*%
X177975840Y-116695000D03*
X177975840Y-119995000D03*
%TD*%
D12*
%TO.C,SW51*%
X46728339Y-60232499D03*
D13*
X33801339Y-62772499D03*
%TD*%
D11*
%TO.C,D87*%
X366986250Y-156248750D03*
X366986250Y-159548750D03*
%TD*%
%TO.C,D86*%
X347936250Y-156248750D03*
X347936250Y-159548750D03*
%TD*%
D14*
%TO.C,SW20*%
X281520710Y-84938514D03*
D15*
X269592179Y-90530389D03*
%TD*%
D17*
%TO.C,SW6*%
X170443808Y-81397733D03*
D18*
X157286313Y-80734960D03*
%TD*%
D11*
%TO.C,D83*%
X366986250Y-137198750D03*
X366986250Y-140498750D03*
%TD*%
%TO.C,D63*%
X322536250Y-52267500D03*
X322536250Y-55567500D03*
%TD*%
D12*
%TO.C,SW79*%
X401376749Y-117381999D03*
D13*
X388449749Y-119921999D03*
%TD*%
D12*
%TO.C,SW31*%
X53872089Y-122144999D03*
D13*
X40945089Y-124684999D03*
%TD*%
D14*
%TO.C,SW57*%
X242768318Y-175587478D03*
D15*
X230839787Y-181179353D03*
%TD*%
D11*
%TO.C,D81*%
X301105000Y-133230000D03*
X301105000Y-136530000D03*
%TD*%
D14*
%TO.C,SW19*%
X262460500Y-87236609D03*
D15*
X250531969Y-92828484D03*
%TD*%
D14*
%TO.C,SW39*%
X271677724Y-124204876D03*
D15*
X259749193Y-129796751D03*
%TD*%
D14*
%TO.C,SW37*%
X235861610Y-138043134D03*
D15*
X223933079Y-143635009D03*
%TD*%
D17*
%TO.C,SW45*%
X132949150Y-153036172D03*
D18*
X119791655Y-152373399D03*
%TD*%
D11*
%TO.C,D80*%
X385998840Y-52292000D03*
X385998840Y-55592000D03*
%TD*%
D12*
%TO.C,SW81*%
X316444999Y-141194999D03*
D13*
X303517999Y-143734999D03*
%TD*%
D10*
%TO.C,D37*%
X219069808Y-134051502D03*
X219868150Y-137253478D03*
%TD*%
D11*
%TO.C,D82*%
X332061250Y-133230000D03*
X332061250Y-136530000D03*
%TD*%
D17*
%TO.C,SW4*%
X134627694Y-67559475D03*
D18*
X121470199Y-66896702D03*
%TD*%
D16*
%TO.C,D13*%
X96846957Y-76946882D03*
X96048615Y-80148858D03*
%TD*%
D12*
%TO.C,SW65*%
X302157499Y-84044999D03*
D13*
X289230499Y-86584999D03*
%TD*%
D17*
%TO.C,SW26*%
X160074431Y-122987033D03*
D18*
X146916936Y-122324260D03*
%TD*%
D11*
%TO.C,D41*%
X33769590Y-133230000D03*
X33769590Y-136530000D03*
%TD*%
%TO.C,D62*%
X299898500Y-52267500D03*
X299898500Y-55567500D03*
%TD*%
D12*
%TO.C,SW69*%
X401376749Y-79281999D03*
D13*
X388449749Y-81821999D03*
%TD*%
D16*
%TO.C,D45*%
X119989388Y-141616507D03*
X119191046Y-144818483D03*
%TD*%
D12*
%TO.C,SW85*%
X337876249Y-160244999D03*
D13*
X324949249Y-162784999D03*
%TD*%
D16*
%TO.C,D35*%
X124598000Y-123132373D03*
X123799658Y-126334349D03*
%TD*%
%TO.C,D23*%
X92238345Y-95431015D03*
X91440003Y-98632991D03*
%TD*%
M02*
